<svg width="109" height="105" viewBox="0 0 109 105" fill="none" xmlns="http://www.w3.org/2000/svg">
<g clip-path="url(#clip0_358_27)">
<mask id="mask0_358_27" style="mask-type:luminance" maskUnits="userSpaceOnUse" x="18" y="14" width="91" height="91">
<path d="M109 14.5H18.0908V104.5H109V14.5Z" fill="white"/>
</mask>
<g mask="url(#mask0_358_27)">
<path d="M86.2977 14.5C86.2977 14.5 78.8181 21.6841 70.7288 24.5805C10.8253 46.0312 36.0891 87.8326 36.9133 87.9703C36.9133 87.9703 40.2724 82.1792 44.81 78.876C73.604 57.9199 79.4563 33.7984 79.4563 33.7984C79.4563 33.7984 72.995 62.8243 47.3784 80.885C41.7207 84.8719 37.8897 94.6884 36.268 104.5C36.268 104.5 40.2785 102.896 42.0031 102.461C42.6756 98.1166 44.0816 93.9564 46.4588 90.24C82.2609 94.4599 93.9868 65.8996 95.5186 55.9408C99.1341 32.4203 86.2977 14.5 86.2977 14.5Z" fill="url(#paint0_linear_358_27)" fill-opacity="0.75"/>
</g>
<mask id="mask1_358_27" style="mask-type:luminance" maskUnits="userSpaceOnUse" x="0" y="0" width="106" height="105">
<path d="M90.1207 -4.60335e-05L0 15.0829L14.9321 104.302L105.053 89.2193L90.1207 -4.60335e-05Z" fill="white"/>
</mask>
<g mask="url(#mask1_358_27)">
<path d="M67.6153 3.7666C67.6153 3.7666 61.3925 12.1293 53.8539 16.3427C-1.97114 47.5461 30.0089 84.7933 30.8488 84.7931C30.8488 84.7931 33.218 78.4949 37.1682 74.4675C62.2356 48.9159 64.0351 24.0327 64.0351 24.0327C64.0351 24.0327 62.4455 53.8788 40.0476 76.0329C35.1004 80.924 32.9314 91.291 32.9516 101.286C32.9516 101.286 36.6612 99.0309 38.2987 98.314C38.2445 93.8954 38.9481 89.538 40.6881 85.4594C76.8799 83.7027 83.7655 53.4446 83.6318 43.3181C83.3136 19.4017 67.6153 3.7666 67.6153 3.7666Z" fill="#075985" fill-opacity="0.88"/>
</g>
</g>
<defs>
<linearGradient id="paint0_linear_358_27" x1="63.5453" y1="14.5" x2="13.7629" y2="277.185" gradientUnits="userSpaceOnUse">
<stop stop-color="#075985"/>
<stop offset="1" stop-color="#075985" stop-opacity="0"/>
</linearGradient>
<clipPath id="clip0_358_27">
<rect width="109" height="105" fill="white"/>
</clipPath>
</defs>
</svg>
